# xmcd
#
# Track frame offsets: 
#        150
#        8403
#        23123
#        45725
#        58708
#        74565
#        82208
#        90323
#        100413
#        110348
#        123488
#        142038
#        155595
#        168368
#
# Disc length: 2402 seconds
#
# Revision: 2
# Processed by: cddbd v1.5.2PL0 Copyright (c) Steve Scherf et al.
# Submitted via: ExactAudioCopyFreeDBPlugin 1.0
#
DISCID=b909600e
DTITLE=Mississippi John Hurt - Stefan Grossman's Masters Of Country Bl
DTITLE=ues Guitar - Disc 1
DYEAR=1900
DGENRE=Songster Pre Blues Era Music
TTITLE0=Shake that Thing
TTITLE1=Spike Driver's Blues
TTITLE2=Casey Jones
TTITLE3=Got The Blues, Can't Be Satisfied
TTITLE4=Joe Turner Blues
TTITLE5=Stock Time
TTITLE6=Hey Baby, Right Away
TTITLE7=Ain't Nobody But You Babe
TTITLE8=Make Me A Pallet On Your Floor
TTITLE9=Nobody's Dirty Business
TTITLE10=Richlands Women Blues
TTITLE11=Louis Collins
TTITLE12=Blessed Be The Name
TTITLE13=Praying On The Old Camp Grounds
EXTD=
EXTT0=
EXTT1=
EXTT2=
EXTT3=
EXTT4=
EXTT5=
EXTT6=
EXTT7=
EXTT8=
EXTT9=
EXTT10=
EXTT11=
EXTT12=
EXTT13=
PLAYORDER=
